<svg width="19" height="19" viewBox="0 0 19 19" fill="none" xmlns="http://www.w3.org/2000/svg">
<path d="M17.7539 15.5742C18.0703 15.9258 18.0703 16.4531 17.7188 16.7695L16.7344 17.7539C16.418 18.1055 15.8906 18.1055 15.5391 17.7539L12.0586 14.2734C11.8828 14.0977 11.8125 13.8867 11.8125 13.6758V13.0781C10.5469 14.0625 9 14.625 7.3125 14.625C3.26953 14.625 0 11.3555 0 7.3125C0 3.30469 3.26953 0 7.3125 0C11.3203 0 14.625 3.30469 14.625 7.3125C14.625 9.03516 14.0273 10.582 13.0781 11.8125H13.6406C13.8516 11.8125 14.0625 11.918 14.2383 12.0586L17.7539 15.5742ZM7.3125 11.8125C9.77344 11.8125 11.8125 9.80859 11.8125 7.3125C11.8125 4.85156 9.77344 2.8125 7.3125 2.8125C4.81641 2.8125 2.8125 4.85156 2.8125 7.3125C2.8125 9.80859 4.81641 11.8125 7.3125 11.8125Z" fill="#FFB30E"/>
</svg>
